<mxfile host="drawio-plugin" modified="2024-02-02T09:54:47.212Z" agent="5.0 (Windows NT 6.2; Win64; x64) AppleWebKit/537.36 (KHTML, like Gecko) Chrome/104.0.5112.102 Safari/537.36" etag="Kn90SyGw7lAAPUIaWS-Y" version="20.5.3" type="embed"><diagram name="Page-1" id="Sxr9DzLDa_L8-qbNaMPQ"><mxGraphModel dx="2001" dy="1118" grid="0" gridSize="10" guides="1" tooltips="0" connect="1" arrows="1" fold="1" page="0" pageScale="1" pageWidth="827" pageHeight="1169" math="0" shadow="0"><root><mxCell id="0"/><mxCell id="1" parent="0"/><mxCell id="13" value="" style="rounded=0;whiteSpace=wrap;html=1;dashed=1;strokeWidth=1;strokeColor=#CCCCFF;" parent="1" vertex="1"><mxGeometry x="30" y="370" width="850" height="470" as="geometry"/></mxCell><mxCell id="Dd9SWTC_9ZYRVmWpmc9n-10" value="&lt;font style=&quot;&quot;&gt;&lt;b style=&quot;font-size: 16px;&quot;&gt;Monolith&lt;/b&gt;&lt;br&gt;&lt;font style=&quot;font-size: 12px;&quot;&gt;Decides when a push notification needs to be sent and starts process&lt;/font&gt;&lt;br&gt;&lt;/font&gt;" style="rounded=0;whiteSpace=wrap;html=1;" parent="1" vertex="1"><mxGeometry x="54.06" y="660" width="265" height="100" as="geometry"/></mxCell><mxCell id="Dd9SWTC_9ZYRVmWpmc9n-12" value="&lt;font style=&quot;&quot;&gt;&lt;b style=&quot;font-size: 15px;&quot;&gt;Celery&lt;br&gt;&lt;/b&gt;&lt;font style=&quot;font-size: 12px;&quot;&gt;Ensures data is sent to Firebase&lt;/font&gt;&lt;br&gt;&lt;/font&gt;" style="rounded=0;whiteSpace=wrap;html=1;" parent="1" vertex="1"><mxGeometry x="584" y="650" width="230" height="120" as="geometry"/></mxCell><mxCell id="Dd9SWTC_9ZYRVmWpmc9n-13" value="" style="endArrow=classic;html=1;rounded=0;exitX=1;exitY=0.5;exitDx=0;exitDy=0;entryX=0;entryY=0.5;entryDx=0;entryDy=0;" parent="1" source="Dd9SWTC_9ZYRVmWpmc9n-10" target="Dd9SWTC_9ZYRVmWpmc9n-12" edge="1"><mxGeometry width="50" height="50" relative="1" as="geometry"><mxPoint x="400" y="880" as="sourcePoint"/><mxPoint x="450" y="830" as="targetPoint"/></mxGeometry></mxCell><mxCell id="Dd9SWTC_9ZYRVmWpmc9n-14" value="Sends push notification data to Celery queue&amp;nbsp;" style="text;html=1;strokeColor=none;fillColor=none;align=center;verticalAlign=middle;whiteSpace=wrap;rounded=0;" parent="1" vertex="1"><mxGeometry x="340" y="710" width="210" height="60" as="geometry"/></mxCell><mxCell id="Dd9SWTC_9ZYRVmWpmc9n-15" value="&lt;font style=&quot;&quot;&gt;&lt;b style=&quot;font-size: 19px;&quot;&gt;Firebase&lt;br&gt;&lt;/b&gt;&lt;font style=&quot;font-size: 13px;&quot;&gt;Handles push notification topics, monitoring and analytics&lt;/font&gt;&lt;br&gt;&lt;/font&gt;" style="rounded=0;whiteSpace=wrap;html=1;" parent="1" vertex="1"><mxGeometry x="920" y="530" width="260" height="120" as="geometry"/></mxCell><mxCell id="Dd9SWTC_9ZYRVmWpmc9n-17" value="Sends request to Firebase with push notification data" style="text;html=1;strokeColor=none;fillColor=none;align=left;verticalAlign=middle;whiteSpace=wrap;rounded=0;" parent="1" vertex="1"><mxGeometry x="890" y="710" width="210" height="60" as="geometry"/></mxCell><mxCell id="Dd9SWTC_9ZYRVmWpmc9n-40" value="Container Diagram" style="text;strokeColor=none;fillColor=none;html=1;fontSize=24;fontStyle=1;verticalAlign=middle;align=left;" parent="1" vertex="1"><mxGeometry x="20" y="70" width="284" height="40" as="geometry"/></mxCell><mxCell id="7" value="Mobile user" style="rounded=1;whiteSpace=wrap;html=1;" parent="1" vertex="1"><mxGeometry x="410" y="180" width="120" height="90" as="geometry"/></mxCell><mxCell id="8" value="" style="ellipse;whiteSpace=wrap;html=1;aspect=fixed;" parent="1" vertex="1"><mxGeometry x="430" y="110" width="80" height="80" as="geometry"/></mxCell><mxCell id="11" value="Firebase sends request with push notification data to device instances" style="text;html=1;strokeColor=none;fillColor=none;align=left;verticalAlign=middle;whiteSpace=wrap;rounded=0;" parent="1" vertex="1"><mxGeometry x="890" y="410" width="210" height="100" as="geometry"/></mxCell><mxCell id="14" value="&lt;font&gt;Company System&lt;/font&gt;" style="text;html=1;strokeColor=none;fillColor=none;align=left;verticalAlign=middle;whiteSpace=wrap;rounded=0;dashed=1;strokeWidth=1;fontColor=#CCCCFF;" parent="1" vertex="1"><mxGeometry x="44" y="800" width="370" height="30" as="geometry"/></mxCell><mxCell id="18" value="&lt;font style=&quot;font-size: 15px;&quot;&gt;&lt;b&gt;Database&lt;/b&gt;&lt;/font&gt;" style="shape=cylinder3;whiteSpace=wrap;html=1;boundedLbl=1;backgroundOutline=1;size=15;strokeColor=default;strokeWidth=1;fontSize=19;fontColor=#FFFFFF;fillColor=none;" parent="1" vertex="1"><mxGeometry x="76.56" y="400" width="220" height="140" as="geometry"/></mxCell><mxCell id="19" value="&lt;font style=&quot;font-size: 12px;&quot;&gt;Stores device tokens and push notification templates&lt;/font&gt;" style="text;html=1;strokeColor=none;fillColor=none;align=center;verticalAlign=middle;whiteSpace=wrap;rounded=0;strokeWidth=1;fontSize=19;fontColor=#FFFFFF;" parent="1" vertex="1"><mxGeometry x="81.56" y="500" width="210" height="30" as="geometry"/></mxCell><mxCell id="27" value="" style="html=1;verticalLabelPosition=bottom;labelBackgroundColor=#ffffff;verticalAlign=top;shadow=0;dashed=0;strokeWidth=1;shape=mxgraph.ios7.misc.ipad7inch;strokeColor=#c0c0c0;fontSize=15;fontColor=#FFFFFF;fillColor=none;direction=south;" parent="1" vertex="1"><mxGeometry x="368" y="395" width="234" height="156" as="geometry"/></mxCell><mxCell id="38" value="" style="edgeStyle=elbowEdgeStyle;elbow=horizontal;endArrow=classic;html=1;rounded=0;fontSize=12;fontColor=#FFFFFF;exitX=0.5;exitY=0;exitDx=0;exitDy=0;entryX=0.522;entryY=-0.004;entryDx=0;entryDy=0;entryPerimeter=0;" parent="1" source="Dd9SWTC_9ZYRVmWpmc9n-15" target="27" edge="1"><mxGeometry width="50" height="50" relative="1" as="geometry"><mxPoint x="690" y="590" as="sourcePoint"/><mxPoint x="740" y="540" as="targetPoint"/><Array as="points"><mxPoint x="1050" y="500"/></Array></mxGeometry></mxCell><mxCell id="39" value="" style="edgeStyle=segmentEdgeStyle;endArrow=classic;html=1;rounded=0;fontSize=12;fontColor=#FFFFFF;entryX=0.5;entryY=1;entryDx=0;entryDy=0;" parent="1" target="Dd9SWTC_9ZYRVmWpmc9n-15" edge="1"><mxGeometry width="50" height="50" relative="1" as="geometry"><mxPoint x="814" y="710" as="sourcePoint"/><mxPoint x="864" y="660" as="targetPoint"/></mxGeometry></mxCell><mxCell id="40" value="" style="endArrow=classic;html=1;rounded=0;fontSize=12;fontColor=#FFFFFF;exitX=0.75;exitY=1;exitDx=0;exitDy=0;entryX=0.003;entryY=0.445;entryDx=0;entryDy=0;entryPerimeter=0;" parent="1" source="7" target="27" edge="1"><mxGeometry width="50" height="50" relative="1" as="geometry"><mxPoint x="690" y="490" as="sourcePoint"/><mxPoint x="740" y="440" as="targetPoint"/></mxGeometry></mxCell><mxCell id="41" value="Views push notifications on mobile device" style="text;html=1;strokeColor=none;fillColor=none;align=left;verticalAlign=middle;whiteSpace=wrap;rounded=0;" parent="1" vertex="1"><mxGeometry x="510" y="257" width="228" height="100" as="geometry"/></mxCell><mxCell id="42" value="" style="endArrow=classic;html=1;rounded=0;fontSize=12;fontColor=#FFFFFF;exitX=0.336;exitY=1.024;exitDx=0;exitDy=0;exitPerimeter=0;" parent="1" source="7" edge="1"><mxGeometry width="50" height="50" relative="1" as="geometry"><mxPoint x="800" y="470" as="sourcePoint"/><mxPoint x="450" y="395" as="targetPoint"/></mxGeometry></mxCell><mxCell id="43" value="User enables push notifications" style="text;html=1;strokeColor=none;fillColor=none;align=right;verticalAlign=middle;whiteSpace=wrap;rounded=0;" parent="1" vertex="1"><mxGeometry x="259" y="257" width="180" height="100" as="geometry"/></mxCell><mxCell id="44" value="" style="endArrow=classic;startArrow=classic;html=1;rounded=0;entryX=0.5;entryY=1;entryDx=0;entryDy=0;entryPerimeter=0;" parent="1" source="Dd9SWTC_9ZYRVmWpmc9n-10" target="18" edge="1"><mxGeometry width="50" height="50" relative="1" as="geometry"><mxPoint x="150" y="620" as="sourcePoint"/><mxPoint x="200" y="570" as="targetPoint"/></mxGeometry></mxCell><mxCell id="34" value="&lt;b&gt;&lt;font style=&quot;font-size: 16px;&quot;&gt;Mobile App&lt;/font&gt;&lt;/b&gt;" style="text;html=1;strokeColor=none;fillColor=none;align=center;verticalAlign=middle;whiteSpace=wrap;rounded=0;strokeWidth=1;fontSize=12;fontColor=#FFFFFF;" parent="1" vertex="1"><mxGeometry x="415" y="410" width="140" height="90" as="geometry"/></mxCell><mxCell id="35" value="&lt;span style=&quot;font-size: 12px;&quot;&gt;Presents push notification to user and allows for config&lt;/span&gt;" style="text;html=1;strokeColor=none;fillColor=none;align=center;verticalAlign=middle;whiteSpace=wrap;rounded=0;strokeWidth=1;fontSize=16;fontColor=#FFFFFF;" parent="1" vertex="1"><mxGeometry x="395" y="470" width="180" height="30" as="geometry"/></mxCell><mxCell id="45" value="" style="endArrow=classic;html=1;rounded=0;exitX=0.89;exitY=1.008;exitDx=0;exitDy=0;exitPerimeter=0;entryX=0.75;entryY=0;entryDx=0;entryDy=0;" parent="1" source="27" target="Dd9SWTC_9ZYRVmWpmc9n-10" edge="1"><mxGeometry width="50" height="50" relative="1" as="geometry"><mxPoint x="692" y="565" as="sourcePoint"/><mxPoint x="742" y="515" as="targetPoint"/></mxGeometry></mxCell><mxCell id="46" value="Makes calls to Monolith" style="text;html=1;strokeColor=none;fillColor=none;align=left;verticalAlign=middle;whiteSpace=wrap;rounded=0;" parent="1" vertex="1"><mxGeometry x="325" y="593" width="123" height="30" as="geometry"/></mxCell><mxCell id="47" value="Reads from and writes to database" style="text;html=1;strokeColor=none;fillColor=none;align=right;verticalAlign=middle;whiteSpace=wrap;rounded=0;" parent="1" vertex="1"><mxGeometry x="54.06" y="586" width="123" height="28" as="geometry"/></mxCell></root></mxGraphModel></diagram></mxfile>